<?xml version="1.0" encoding="UTF-8"?>
<svg version="1.1" xmlns="http://www.w3.org/2000/svg" width="256" height="256">
<path d="M0 0 C1.21236328 0.04060547 1.21236328 0.04060547 2.44921875 0.08203125 C3.06410156 0.11683594 3.67898437 0.15164062 4.3125 0.1875 C6.21330793 4.99974315 6.6167081 9.37428914 6.63134766 14.48779297 C6.64139328 15.29821548 6.6514389 16.108638 6.66178894 16.94361877 C6.69252517 19.60563488 6.70962933 22.26755086 6.7265625 24.9296875 C6.74528185 26.7820013 6.76485583 28.63430664 6.7852478 30.48660278 C6.83649397 35.34939581 6.87615988 40.21221645 6.91339111 45.07513428 C6.95347792 50.0423461 7.00454891 55.00944376 7.0546875 59.9765625 C7.15135779 69.71346138 7.235791 79.45042483 7.3125 89.1875 C10.56946972 90.81598486 14.16811548 90.38769543 17.75 90.43359375 C19.46615115 90.46652111 21.18229685 90.49973294 22.8984375 90.53320312 C25.61096586 90.58070929 28.32347043 90.62515832 31.03613281 90.66430664 C33.64931973 90.70390757 36.26205804 90.75546918 38.875 90.80859375 C39.68960693 90.8170079 40.50421387 90.82542206 41.34350586 90.83409119 C47.08580234 90.96080234 47.08580234 90.96080234 49.3125 93.1875 C49.02115479 97.87720463 47.50861374 101.03224584 45.05859375 104.984375 C44.37732422 106.09425781 43.69605469 107.20414062 42.99414062 108.34765625 C42.24624046 109.54436254 41.49818954 110.74097461 40.75 111.9375 C39.97630089 113.19084332 39.20352874 114.44475929 38.43164062 115.69921875 C36.84233271 118.27868633 35.24763906 120.85469257 33.64794922 123.42773438 C30.83682402 127.94969653 28.04817167 132.48539199 25.25952148 137.02124023 C23.95424627 139.1438878 22.64775468 141.26578783 21.34008789 143.38696289 C16.42371203 151.36362428 11.5470909 159.36368708 6.6875 167.375 C5.97477897 168.54932056 5.26205115 169.72363699 4.54931641 170.89794922 C1.1506848 176.49925439 -2.24152315 182.10436516 -5.625 187.71484375 C-6.85416354 189.74739773 -8.08333005 191.7799499 -9.3125 193.8125 C-9.85600098 194.71766357 -10.39950195 195.62282715 -10.95947266 196.55541992 C-20.02215859 211.52215859 -20.02215859 211.52215859 -24.6875 216.1875 C-26.5625 216.453125 -26.5625 216.453125 -28.6875 216.4375 C-29.38875 216.44265625 -30.09 216.4478125 -30.8125 216.453125 C-32.6875 216.1875 -32.6875 216.1875 -34.6875 214.1875 C-34.89470346 211.39793634 -34.97798269 208.70550912 -34.97460938 205.9140625 C-34.98144241 205.05866882 -34.98827545 204.20327515 -34.99531555 203.32196045 C-35.00892422 201.46131021 -35.0179642 199.60062232 -35.02302551 197.7399292 C-35.0312889 194.79865354 -35.05176907 191.85769222 -35.07556152 188.91650391 C-35.13208238 181.61163926 -35.1672181 174.30669838 -35.20318604 167.00170898 C-35.23437619 160.83151265 -35.27352835 154.66146819 -35.32344055 148.49139404 C-35.34357662 145.58750419 -35.35184213 142.68373044 -35.35974121 139.77978516 C-35.37270848 138.00683158 -35.38622803 136.23388193 -35.40039062 134.4609375 C-35.39891777 133.24213898 -35.39891777 133.24213898 -35.39741516 131.99871826 C-35.2755596 127.62566062 -35.2755596 127.62566062 -37.6875 124.1875 C-40.45686496 123.96613151 -43.13408493 123.86220387 -45.90625 123.84375 C-46.71993042 123.8291272 -47.53361084 123.81450439 -48.37194824 123.79943848 C-50.97708232 123.75284908 -53.58213871 123.71869331 -56.1875 123.6875 C-59.6148706 123.64646499 -63.04169406 123.59283826 -66.46875 123.53125 C-67.65784973 123.52333435 -67.65784973 123.52333435 -68.87097168 123.51525879 C-74.46189638 123.41310362 -74.46189638 123.41310362 -76.6875 121.1875 C-76.36325147 116.97272448 -74.59658184 113.93098944 -72.46875 110.33984375 C-72.13931396 109.77974609 -71.80987793 109.21964844 -71.47045898 108.64257812 C-70.38332639 106.7990256 -69.2856853 104.96198656 -68.1875 103.125 C-67.41687602 101.82456177 -66.64670099 100.5238574 -65.87695312 99.22290039 C-58.96554695 87.56539409 -51.93613562 75.97858914 -44.87475586 64.41148376 C-41.32164418 58.59107894 -37.78333235 52.76173794 -34.24615479 46.93164062 C-33.19592286 45.20137672 -32.14474606 43.47169055 -31.09326172 41.7421875 C-27.76503862 36.26666747 -24.44346899 30.78736789 -21.14105225 25.29623413 C-19.57742368 22.69706379 -18.01064016 20.09980222 -16.44360352 17.50268555 C-15.69608906 16.26177606 -14.95012881 15.01992885 -14.20581055 13.77709961 C-13.17497758 12.05607914 -12.13839631 10.33850567 -11.1015625 8.62109375 C-10.5132666 7.64197021 -9.9249707 6.66284668 -9.31884766 5.65405273 C-6.53296475 1.4418745 -5.16227996 -0.22444695 0 0 Z " fill="#FE8F49" transform="translate(138.6875,23.8125)"/>
<path d="M0 0 C1.32 0 2.64 0 4 0 C3.66680782 6.69986429 0.92666255 10.96361055 -2.6875 16.5 C-3.88126398 18.37693317 -5.07393493 20.25456189 -6.265625 22.1328125 C-7.1927832 23.58349121 -7.1927832 23.58349121 -8.13867188 25.06347656 C-11.13724312 29.79417107 -14.0361935 34.58426116 -16.9375 39.375 C-18.11572169 41.31390159 -19.29410793 43.25270319 -20.47265625 45.19140625 C-21.64849615 47.12756855 -22.82427782 49.06376622 -24 51 C-36.17150693 71.03967699 -48.36557766 91.06725018 -60.8125 110.9375 C-61.54073975 112.10877441 -61.54073975 112.10877441 -62.28369141 113.30371094 C-62.73276855 114.01688477 -63.1818457 114.73005859 -63.64453125 115.46484375 C-64.02971924 116.079646 -64.41490723 116.69444824 -64.81176758 117.32788086 C-66.07410301 119.10428016 -67.36082007 120.56355506 -69 122 C-71.72507798 122.39078556 -74.23121956 122.13616953 -77 122 C-77.33 121.34 -77.66 120.68 -78 120 C-76.68 120 -75.36 120 -74 120 C-73.62681641 118.97712891 -73.62681641 118.97712891 -73.24609375 117.93359375 C-71.77909487 114.47993809 -69.95731786 111.29238219 -68.0625 108.0625 C-65.55918184 103.77574182 -63.17470739 99.46530828 -61 95 C-60.34 95 -59.68 95 -59 95 C-58.67 93.35 -58.34 91.7 -58 90 C-57.34 90 -56.68 90 -56 90 C-55.67 88.35 -55.34 86.7 -55 85 C-54.34 85 -53.68 85 -53 85 C-51.92474806 82.34771188 -50.90543849 79.71631546 -50 77 C-49.34 77 -48.68 77 -48 77 C-47.73703125 76.45601563 -47.4740625 75.91203125 -47.203125 75.3515625 C-44.69317949 70.44575991 -41.797503 65.74565795 -39 61 C-38.54753906 60.22785156 -38.09507812 59.45570313 -37.62890625 58.66015625 C-33.84573282 52.27254295 -29.86414001 46.01203751 -25.88720703 39.74414062 C-23.09027027 35.33018455 -20.3159469 30.90403227 -17.578125 26.453125 C-17.0116626 25.53249268 -16.4452002 24.61186035 -15.86157227 23.66333008 C-14.78130176 21.90436548 -13.70348194 20.14389232 -12.62866211 18.3815918 C-3.46305222 3.46305222 -3.46305222 3.46305222 0 0 Z " fill="#FE7F6F" transform="translate(183,118)"/>
<path d="M0 0 C2.31 0 4.62 0 7 0 C8.89840297 4.80513414 9.29897532 9.16284368 9.30297852 14.26855469 C9.31141785 15.07576462 9.31985718 15.88297455 9.32855225 16.71464539 C9.35422094 19.36706161 9.36644251 22.01936685 9.37890625 24.671875 C9.39508807 26.51939772 9.41226878 28.36691193 9.43040466 30.2144165 C9.47600081 35.06659015 9.51085892 39.91877522 9.54260254 44.77105713 C9.59457247 52.5517214 9.65953091 60.33226123 9.73081779 68.11277008 C9.75368216 70.8327167 9.76992897 73.55264733 9.78553772 76.27264404 C9.79893966 77.931439 9.81255405 79.59023226 9.82641602 81.24902344 C9.82902939 82.00851791 9.83164276 82.76801239 9.83433533 83.55052185 C9.80366912 87.4026154 9.80366912 87.4026154 11 91 C8.36 91 5.72 91 3 91 C0.42155204 87.12610575 0.69326085 83.03895491 0.68115234 78.55957031 C0.67110672 77.71042557 0.6610611 76.86128082 0.65071106 75.98640442 C0.61985527 73.18365141 0.60283725 70.38099403 0.5859375 67.578125 C0.56722778 65.63327205 0.54765452 63.68842724 0.5272522 61.74359131 C0.47590429 56.62759189 0.43629274 51.51156614 0.39910889 46.39544678 C0.35908596 41.17372104 0.3079858 35.95210507 0.2578125 30.73046875 C0.1610217 20.48705624 0.07662695 10.2435818 0 0 Z " fill="#FDB263" transform="translate(136,24)"/>
<path d="M0 0 C0.99 0.33 1.98 0.66 3 1 C3 4.3 3 7.6 3 11 C1.68 11 0.36 11 -1 11 C-1.556875 12.2684375 -1.556875 12.2684375 -2.125 13.5625 C-3.62593334 16.31421112 -4.8268699 18.05322247 -6.875 20.3125 C-9.79660658 23.57483986 -11.81835475 27.00595781 -13.82421875 30.88671875 C-15 33 -15 33 -16.48828125 34.98046875 C-18.08559647 37.11434981 -19.26941248 39.26137153 -20.5 41.625 C-23.78184398 47.74341265 -27.39271063 53.63754 -31.04101562 59.54150391 C-33.78273847 63.98266591 -36.43372266 68.45510126 -39 73 C-40.03345289 74.81719587 -41.07421986 76.63026819 -42.125 78.4375 C-42.62257813 79.30246094 -43.12015625 80.16742188 -43.6328125 81.05859375 C-44.08398438 81.69925781 -44.53515625 82.33992188 -45 83 C-45.66 83 -46.32 83 -47 83 C-47.0928125 83.99 -47.0928125 83.99 -47.1875 85 C-48.32506011 89.20022195 -50.6171212 92.39608082 -53 96 C-60.4559753 108.03461945 -60.4559753 108.03461945 -66 121 C-67.98 121 -69.96 121 -72 121 C-71.40837055 116.77400627 -69.94853766 113.8100791 -67.78125 110.15234375 C-67.45181396 109.59224609 -67.12237793 109.03214844 -66.78295898 108.45507812 C-65.69582639 106.6115256 -64.5981853 104.77448656 -63.5 102.9375 C-62.72937602 101.63706177 -61.95920099 100.3363574 -61.18945312 99.03540039 C-54.27804695 87.37789409 -47.24863562 75.79108914 -40.18725586 64.22398376 C-36.63414418 58.40357894 -33.09583235 52.57423794 -29.55865479 46.74414062 C-28.50842286 45.01387672 -27.45724606 43.28419055 -26.40576172 41.5546875 C-23.07753862 36.07916747 -19.75596899 30.59986789 -16.45355225 25.10873413 C-14.88992368 22.50956379 -13.32314016 19.91230222 -11.75610352 17.31518555 C-11.00858906 16.07427606 -10.26262881 14.83242885 -9.51831055 13.58959961 C-8.48747758 11.86857914 -7.45089631 10.15100567 -6.4140625 8.43359375 C-5.8257666 7.45447021 -5.2374707 6.47534668 -4.63134766 5.46655273 C-3.22711423 3.34339046 -1.88093729 1.6964127 0 0 Z " fill="#DD8037" transform="translate(134,24)"/>
<path d="M0 0 C1.28003906 0.02964844 2.56007813 0.05929688 3.87890625 0.08984375 C5.23185859 0.14095673 6.58472757 0.19432834 7.9375 0.25 C9.80728516 0.31960937 9.80728516 0.31960937 11.71484375 0.390625 C15.49922493 1.09260296 16.70447041 1.96879467 19 5 C19.495 6.485 19.495 6.485 20 8 C20.66 8.66 21.32 9.32 22 10 C22.23377991 12.99168396 22.23377991 12.99168396 22.21118164 16.88061523 C22.2098674 17.58809906 22.20855316 18.29558289 22.2071991 19.02450562 C22.20069418 21.36933631 22.18025391 23.71384357 22.16015625 26.05859375 C22.15388748 27.68522285 22.14864685 29.31185621 22.14439392 30.93849182 C22.13107177 35.22656203 22.10663242 39.51449065 22.07904053 43.80249023 C22.03597602 50.66293618 22.00621454 57.52341986 21.9829998 64.38395882 C21.97276475 66.78316126 21.95571338 69.1822482 21.93800354 71.58140564 C21.9311755 73.05093278 21.92456677 74.52046097 21.91821289 75.98999023 C21.90583336 77.91620461 21.90583336 77.91620461 21.89320374 79.8813324 C21.85357314 83.03334384 21.85357314 83.03334384 23 86 C23 86.99 23 87.98 23 89 C23.99 89.495 23.99 89.495 25 90 C23.8125 92.5 23.8125 92.5 22 95 C19.38671875 95.15625 19.38671875 95.15625 17 95 C16.99191315 93.90197052 16.98382629 92.80394104 16.97549438 91.67263794 C16.89812744 81.34242245 16.8104124 71.0123402 16.71247292 60.68229866 C16.6624521 55.37107091 16.61612273 50.05986361 16.578125 44.74853516 C16.5413451 39.62617629 16.49500538 34.5039862 16.44193649 29.38177109 C16.42335363 27.42411118 16.40826019 25.46641504 16.39665604 23.50870132 C16.37985993 20.77401564 16.3508416 18.03971983 16.31884766 15.30517578 C16.31668747 14.48950134 16.31452728 13.6738269 16.31230164 12.83343506 C16.41677423 8.44868676 16.41677423 8.44868676 14 5 C11.20783209 4.75430728 8.50759395 4.62636862 5.7109375 4.5859375 C4.89251373 4.56657135 4.07408997 4.5472052 3.23086548 4.5272522 C0.61235024 4.46738918 -2.00620881 4.42104468 -4.625 4.375 C-6.39845686 4.33682636 -8.17189505 4.29777499 -9.9453125 4.2578125 C-14.29672375 4.16168229 -18.64822179 4.07767649 -23 4 C-23.33 3.34 -23.66 2.68 -24 2 C-15.90831026 0.55919038 -8.21339514 -0.33457983 0 0 Z " fill="#E95636" transform="translate(87,143)"/>
<path d="M0 0 C0.99 0.33 1.98 0.66 3 1 C3 4.3 3 7.6 3 11 C1.68 11 0.36 11 -1 11 C-1.37125 11.845625 -1.7425 12.69125 -2.125 13.5625 C-3.62593334 16.31421112 -4.8268699 18.05322247 -6.875 20.3125 C-9.79660658 23.57483986 -11.81835475 27.00595781 -13.82421875 30.88671875 C-15 33 -15 33 -16.48828125 34.98046875 C-18.08559647 37.11434981 -19.26941248 39.26137153 -20.5 41.625 C-23.78184398 47.74341265 -27.39271063 53.63754 -31.04101562 59.54150391 C-33.16004029 62.97399229 -35.24991508 66.40896576 -37.2265625 69.92578125 C-38.6701689 72.42824433 -39.82591819 74.15203046 -42 76 C-41.43380074 71.89689369 -40.12213415 69.29101519 -37.8125 65.875 C-35.25936208 61.97393212 -32.79792569 58.05769547 -30.5 54 C-29.9946875 53.113125 -29.489375 52.22625 -28.96875 51.3125 C-27.66421548 48.91031102 -27.66421548 48.91031102 -29 46 C-27.81826471 43.58640439 -26.58798745 41.37626162 -25.1875 39.09375 C-24.78096191 38.41380981 -24.37442383 37.73386963 -23.95556641 37.0333252 C-22.64654799 34.84967171 -21.32337519 32.67497604 -20 30.5 C-19.13841731 29.06564776 -18.2777301 27.63075721 -17.41796875 26.1953125 C-3.79164832 3.50303031 -3.79164832 3.50303031 0 0 Z " fill="#E09034" transform="translate(134,24)"/>
<path d="M0 0 C1.30324219 0.05285156 2.60648438 0.10570312 3.94921875 0.16015625 C14.70360263 0.70360263 14.70360263 0.70360263 17 3 C16.625 5.125 16.625 5.125 16 7 C15.34 6.34 14.68 5.68 14 5 C11.20783209 4.75430728 8.50759395 4.62636862 5.7109375 4.5859375 C4.89251373 4.56657135 4.07408997 4.5472052 3.23086548 4.5272522 C0.61235024 4.46738918 -2.00620881 4.42104468 -4.625 4.375 C-6.39845686 4.33682636 -8.17189505 4.29777499 -9.9453125 4.2578125 C-14.29672375 4.16168229 -18.64822179 4.07767649 -23 4 C-23.33 3.34 -23.66 2.68 -24 2 C-15.91368168 0.56014682 -8.20975721 -0.35507469 0 0 Z " fill="#F46D60" transform="translate(87,143)"/>
<path d="M0 0 C0.99 0.495 0.99 0.495 2 1 C2.33 1.99 2.66 2.98 3 4 C3.66 4.66 4.32 5.32 5 6 C5.24050903 8.13870239 5.24050903 8.13870239 5.22705078 10.81689453 C5.22689972 11.81778107 5.22674866 12.8186676 5.22659302 13.84988403 C5.21627045 14.93325043 5.20594788 16.01661682 5.1953125 17.1328125 C5.1924826 18.23978485 5.18965271 19.3467572 5.18673706 20.48727417 C5.17551519 24.03329137 5.15040691 27.57905875 5.125 31.125 C5.1149728 33.52473594 5.1058465 35.92447583 5.09765625 38.32421875 C5.07556932 44.21623151 5.04207207 50.10809791 5 56 C4.34 56 3.68 56 3 56 C2.98018066 55.18958252 2.96036133 54.37916504 2.93994141 53.54418945 C2.86076596 50.47056366 2.77405496 47.39725823 2.68261719 44.32397461 C2.62654755 42.36652645 2.57878078 40.40884599 2.53125 38.45117188 C2.30740435 31.12022679 1.65207425 24.08114311 0.43212891 16.85083008 C-0.11666712 13.2303266 -0.198928 9.84693617 -0.125 6.1875 C-0.10695313 5.00542969 -0.08890625 3.82335937 -0.0703125 2.60546875 C-0.04710938 1.74566406 -0.02390625 0.88585937 0 0 Z " fill="#F86837" transform="translate(104,147)"/>
<path d="M0 0 C0.99 0.66 1.98 1.32 3 2 C1.23342471 5.0857915 -0.53900157 8.16818305 -2.3125 11.25 C-2.81201172 12.12269531 -3.31152344 12.99539062 -3.82617188 13.89453125 C-4.31279297 14.73886719 -4.79941406 15.58320312 -5.30078125 16.453125 C-5.74591064 17.22817383 -6.19104004 18.00322266 -6.6496582 18.80175781 C-8 21 -8 21 -9.61157227 23.14111328 C-11.18458631 25.24713208 -11.86207312 27.11824025 -12.625 29.625 C-13.31686426 31.86425959 -13.9514437 33.9028874 -15 36 C-15.66 36 -16.32 36 -17 36 C-17.00988013 26.84111531 -12.61420001 20.44501694 -7.9375 12.9375 C-7.16973659 11.6786403 -6.40344689 10.41888055 -5.63867188 9.15820312 C-3.77600328 6.09489828 -1.89364514 3.04427878 0 0 Z " fill="#DF8632" transform="translate(104,71)"/>
<path d="M0 0 C0.33 0 0.66 0 1 0 C1.33 14.52 1.66 29.04 2 44 C2.33 33.11 2.66 22.22 3 11 C3.33 11 3.66 11 4 11 C4.61539951 18.01115868 5.12462609 24.93594321 4.9375 31.9765625 C4.90957628 34.20670889 4.90957628 34.20670889 6 37 C6 37.99 6 38.98 6 40 C6.66 40.33 7.32 40.66 8 41 C6.8125 43.5 6.8125 43.5 5 46 C3.35 46 1.7 46 0 46 C0 30.82 0 15.64 0 0 Z " fill="#E65646" transform="translate(104,192)"/>
<path d="M0 0 C0.66 0.33 1.32 0.66 2 1 C2 4.3 2 7.6 2 11 C0.68 11 -0.64 11 -2 11 C-2.37125 11.845625 -2.7425 12.69125 -3.125 13.5625 C-4.62593334 16.31421112 -5.8268699 18.05322247 -7.875 20.3125 C-10.84943745 23.61907066 -12.83806425 27.11654751 -14.82421875 31.08203125 C-16 33 -16 33 -19 35 C-18.67 33.68 -18.34 32.36 -18 31 C-17.34 31 -16.68 31 -16 31 C-15.86078125 29.93265625 -15.86078125 29.93265625 -15.71875 28.84375 C-14.62708819 24.52456633 -12.08859975 21.35877669 -9.59375 17.71875 C-8.02186636 15.03730143 -7.54450169 13.01611232 -7 10 C-6.38125 9.731875 -5.7625 9.46375 -5.125 9.1875 C-1.65964499 7.25097808 -1.12145953 3.65323937 0 0 Z " fill="#F19B31" transform="translate(135,24)"/>
<path d="M0 0 C0.66 0.33 1.32 0.66 2 1 C1.071875 2.2065625 1.071875 2.2065625 0.125 3.4375 C-2.11676025 6.76856629 -2.82351796 9.96895207 -3.5625 13.875 C-4.08104473 16.39364582 -4.94311728 18.65975969 -6 21 C-7.98 21 -9.96 21 -12 21 C-11.44993741 16.02048606 -9.13300985 12.42556999 -6.5625 8.25 C-6.15451172 7.56550781 -5.74652344 6.88101563 -5.32617188 6.17578125 C-2.26535848 1.13267924 -2.26535848 1.13267924 0 0 Z " fill="#DD7835" transform="translate(74,124)"/>
<path d="M0 0 C0.33 0.66 0.66 1.32 1 2 C-2.65198298 10.68207274 -8.47594972 18.77058527 -13.4140625 26.765625 C-15.07377292 29.45746784 -16.67713287 32.16906396 -18.2265625 34.92578125 C-19.6701689 37.42824433 -20.82591819 39.15203046 -23 41 C-22.43380074 36.89689369 -21.12213415 34.29101519 -18.8125 30.875 C-15.71596358 26.17614904 -12.97159226 21.39244704 -10.359375 16.41015625 C-9.05848789 14.10369836 -7.5927865 12.10981667 -6 10 C-5.09976227 8.45190333 -4.22449292 6.88901293 -3.375 5.3125 C-1.09964413 1.09964413 -1.09964413 1.09964413 0 0 Z " fill="#F29332" transform="translate(115,59)"/>
<path d="M0 0 C11.88 0 23.76 0 36 0 C36 0.66 36 1.32 36 2 C32.21786865 3.24810335 28.53200706 3.03501717 24.609375 2.87890625 C23.90476135 2.85529526 23.20014771 2.83168427 22.47418213 2.80735779 C20.2325672 2.73103023 17.99132504 2.64687421 15.75 2.5625 C14.2265805 2.5092483 12.70314302 2.45650812 11.1796875 2.40429688 C7.45289845 2.27545752 3.72640333 2.13959768 0 2 C0 1.34 0 0.68 0 0 Z " fill="#FC9634" transform="translate(141,116)"/>
<path d="M0 0 C1.27649666 0.02830147 1.27649666 0.02830147 2.57878113 0.05717468 C4.36468684 0.09881659 6.1505234 0.14352688 7.9362793 0.19116211 C10.67678588 0.26194649 13.4173046 0.31598351 16.15820312 0.36914062 C17.89716058 0.41174551 19.63609436 0.45533043 21.375 0.5 C22.19579544 0.51468826 23.01659088 0.52937653 23.86225891 0.54450989 C29.62638646 0.72013646 29.62638646 0.72013646 31.85546875 2.94921875 C31.48046875 5.07421875 31.48046875 5.07421875 30.85546875 6.94921875 C30.85546875 5.95921875 30.85546875 4.96921875 30.85546875 3.94921875 C28.87546875 4.60921875 26.89546875 5.26921875 24.85546875 5.94921875 C24.36046875 4.46421875 24.36046875 4.46421875 23.85546875 2.94921875 C4.05546875 2.45421875 4.05546875 2.45421875 -16.14453125 1.94921875 C-16.14453125 1.61921875 -16.14453125 1.28921875 -16.14453125 0.94921875 C-10.69277268 0.01248891 -5.52250132 -0.14142845 0 0 Z " fill="#FC9F48" transform="translate(156.14453125,114.05078125)"/>
<path d="M0 0 C0.33 0.66 0.66 1.32 1 2 C-0.109375 4.20703125 -0.109375 4.20703125 -1.75 6.8125 C-2.28109375 7.66457031 -2.8121875 8.51664063 -3.359375 9.39453125 C-3.90078125 10.25433594 -4.4421875 11.11414063 -5 12 C-7.42023079 15.96427676 -9.63724084 20.00901392 -11.81640625 24.109375 C-13 26 -13 26 -15 27 C-14.7022861 22.23657763 -12.31823449 19.63567454 -9.48046875 16.04296875 C-7.45178597 13.24349356 -6.33014994 10.18079334 -5 7 C-3.43136851 4.57575134 -1.7419929 2.30696356 0 0 Z " fill="#F08335" transform="translate(86,108)"/>
<path d="M0 0 C0.33 0 0.66 0 1 0 C1.61539951 7.01115868 2.12462609 13.93594321 1.9375 20.9765625 C1.90957628 23.20670889 1.90957628 23.20670889 3 26 C2.0625 28.1875 2.0625 28.1875 1 30 C0.67 30 0.34 30 0 30 C0 20.1 0 10.2 0 0 Z " fill="#F65041" transform="translate(107,203)"/>
<path d="M0 0 C1 3 1 3 -0.1875 6.125 C-2 9 -2 9 -4.1875 9.875 C-5.0846875 9.936875 -5.0846875 9.936875 -6 10 C-6 10.99 -6 11.98 -6 13 C-6.66 13 -7.32 13 -8 13 C-6.24385848 8.02426569 -3.74380523 3.74380523 0 0 Z " fill="#D9953A" transform="translate(134,24)"/>
<path d="M0 0 C0 3 0 3 -1 4.6875 C-4.21371429 6.7965 -7.21503429 6.18614585 -11 6 C-11.33 5.34 -11.66 4.68 -12 4 C-10.68 4 -9.36 4 -8 4 C-7.67 3.01 -7.34 2.02 -7 1 C-6.67 1.66 -6.34 2.32 -6 3 C-2.75016865 1.91215032 -2.75016865 1.91215032 0 0 Z " fill="#F45E91" transform="translate(117,234)"/>
<path d="M0 0 C6.0546875 -0.1953125 6.0546875 -0.1953125 8 0 C8.66 0.66 9.32 1.32 10 2 C9.625 4.125 9.625 4.125 9 6 C9 5.01 9 4.02 9 3 C7.02 3.66 5.04 4.32 3 5 C2.67 4.01 2.34 3.02 2 2 C1.34 1.34 0.68 0.68 0 0 Z " fill="#F4A264" transform="translate(178,115)"/>
<path d="M0 0 C1.98 0.495 1.98 0.495 4 1 C3.38461538 6.53846154 3.38461538 6.53846154 1.4375 8.875 C0.963125 9.24625 0.48875 9.6175 0 10 C-1.10807948 6.67576157 -0.76802174 5.32809422 0 2 C0 1.34 0 0.68 0 0 Z " fill="#F1954D" transform="translate(177,116)"/>
<path d="M0 0 C0.66 0.33 1.32 0.66 2 1 C2 4.3 2 7.6 2 11 C1.34 11 0.68 11 0 11 C-1.125 3.375 -1.125 3.375 0 0 Z " fill="#E5A54F" transform="translate(135,24)"/>
<path d="M0 0 C0.66 0.66 1.32 1.32 2 2 C3.32 2 4.64 2 6 2 C5.67 2.99 5.34 3.98 5 5 C3.02 5 1.04 5 -1 5 C-0.67 3.35 -0.34 1.7 0 0 Z " fill="#D86B44" transform="translate(63,140)"/>
<path d="M0 0 C0.66 1.32 1.32 2.64 2 4 C1.54625 4.5775 1.0925 5.155 0.625 5.75 C-0.84113516 7.7800333 -1.94857784 9.73539843 -3 12 C-4.21386936 8.35839192 -3.6674695 7.66834531 -2.0625 4.3125 C-1.49208984 3.10013672 -1.49208984 3.10013672 -0.91015625 1.86328125 C-0.60980469 1.24839844 -0.30945313 0.63351563 0 0 Z " fill="#F3A33F" transform="translate(133,29)"/>
<path d="M0 0 C0.66 0.33 1.32 0.66 2 1 C0.8125 3.5 0.8125 3.5 -1 6 C-3.6875 6.3125 -3.6875 6.3125 -6 6 C-3.375 1.125 -3.375 1.125 0 0 Z " fill="#E5485C" transform="translate(110,232)"/>
<path d="M0 0 C0.66 0.33 1.32 0.66 2 1 C0.02 3.97 -1.96 6.94 -4 10 C-4.66 9.34 -5.32 8.68 -6 8 C-5.566875 7.608125 -5.13375 7.21625 -4.6875 6.8125 C-2.73633776 4.71680722 -1.40989838 2.48410667 0 0 Z " fill="#FE7151" transform="translate(141,182)"/>
<path d="M0 0 C0 1.32 0 2.64 0 4 C-1.98 4.99 -1.98 4.99 -4 6 C-4 4.35 -4 2.7 -4 1 C-2 0 -2 0 0 0 Z " fill="#D66E30" transform="translate(68,137)"/>
</svg>
