<?xml version="1.0" encoding="UTF-8"?>
<svg version="1.1" xmlns="http://www.w3.org/2000/svg" width="512" height="512">
<path d="M0 0 C4.85857844 2.29678253 7.63468979 5.17840611 10 10 C11.13941804 17.09634472 9.00928631 22.02385966 5.5 28.0625 C4.65370292 29.57279431 3.81005777 31.08457698 2.96875 32.59765625 C2.26745972 33.85376709 2.26745972 33.85376709 1.55200195 35.13525391 C-1.37665652 40.54108662 -4.07242 46.06630739 -6.79962158 51.57565308 C-10.57303166 59.19662908 -14.36459473 66.80862311 -18.15551758 74.42089844 C-19.18361741 76.48725622 -20.21029215 78.55432362 -21.2355957 80.62207031 C-22.74049542 83.65620775 -24.25060818 86.68770197 -25.76171875 89.71875 C-26.21391281 90.63346069 -26.66610687 91.54817139 -27.13200378 92.49060059 C-29.51683672 97.26109602 -32.04816459 101.8338318 -34.92799377 106.32333374 C-37.03662435 109.62132741 -38.81167771 113.09657663 -40.625 116.5625 C-41.05248535 117.3762207 -41.4799707 118.18994141 -41.92041016 119.02832031 C-45.71197819 126.31418643 -49.23510205 133.71786667 -52.74145508 141.14404297 C-57.04749115 150.21376878 -61.68162723 159.0964281 -66.36328125 167.9765625 C-68.29770843 171.64639343 -70.17887659 175.33480457 -72 179.0625 C-76.29313253 187.76514516 -81.08568805 196.21872961 -85.76660156 204.71679688 C-86.88783831 206.7923721 -87.95035036 208.88765039 -89 211 C-87.67366798 210.99943446 -87.67366798 210.99943446 -86.32054138 210.9988575 C-64.79534568 210.99173725 -43.2704104 211.01766577 -21.74530029 211.0802784 C-11.33584354 211.10976248 -0.92659085 211.12810265 9.48291016 211.12011719 C18.55693487 211.11318458 27.63064372 211.12725407 36.7045908 211.16643608 C41.50830501 211.18644829 46.31152334 211.19601584 51.11526489 211.18042374 C55.63976223 211.16607009 60.16331316 211.1798656 64.68768883 211.21495247 C66.34524539 211.22290002 68.00288769 211.22069473 69.66040993 211.20739174 C84.7764876 211.09636411 84.7764876 211.09636411 90.58999634 216.37898064 C93.91225955 220.19844093 95.96643576 223.15396697 96.0625 228.4375 C93.57434878 236.78012467 88.99770123 241.10710766 82.22265625 246.38671875 C78.46970401 249.35795222 75.0314709 252.64378762 71.5625 255.9375 C64.35993501 262.74275107 56.86567576 269.05920476 49.1640625 275.296875 C43.79426561 279.65889488 38.5947871 284.13793709 33.484375 288.80078125 C30.95029186 291.04400264 28.34483133 293.15479645 25.6875 295.25 C22.21595536 297.98842341 19.08970711 300.83106963 16 304 C11.34846016 308.29958284 6.55002662 312.39276419 1.625 316.375 C-3.16690919 320.25924951 -7.71270908 324.35487995 -12.25 328.53125 C-15.81184229 331.72881296 -19.52565833 334.71388343 -23.25 337.71875 C-26.08099578 340.06718968 -28.79383598 342.50909902 -31.5 345 C-35.94727112 349.09351091 -40.54717463 352.92442499 -45.25 356.71875 C-48.08099578 359.06718968 -50.79383598 361.50909902 -53.5 364 C-59.59840814 369.60913758 -65.96156074 374.86737889 -72.5078125 379.9453125 C-75.18286005 382.15075923 -77.55253949 384.54523363 -80 387 C-82.25836461 389.03889971 -84.56538703 391.01951066 -86.875 393 C-88.20974306 394.14961461 -89.54437524 395.29935798 -90.87890625 396.44921875 C-91.55969238 397.03493652 -92.24047852 397.6206543 -92.94189453 398.22412109 C-94.95555409 399.96164893 -96.96154848 401.70756967 -98.96484375 403.45703125 C-105.14543763 408.85035281 -111.35774831 414.15307689 -117.796875 419.23828125 C-122.54673976 423.03648871 -127.07738278 427.00941708 -131.3125 431.375 C-135.00579651 435.13544735 -139.06489749 438.37145653 -143.16796875 441.671875 C-145.89785825 443.91603244 -148.51746329 446.24050298 -151.125 448.625 C-154.83609799 452.00297581 -158.65020447 455.13492526 -162.63671875 458.1796875 C-165.37455741 460.28850207 -168.06622522 462.44780118 -170.75 464.625 C-171.63171875 465.33914063 -172.5134375 466.05328125 -173.421875 466.7890625 C-176.08944586 469.0767066 -178.53068271 471.50052311 -181 474 C-188.36253905 481.06744234 -195.95768791 487.71376238 -204 494 C-209.8706837 498.73282646 -215.67775477 503.50257077 -221.24609375 508.58984375 C-225.76507674 512.22314633 -229.63409786 512.43339472 -235.30859375 512.3125 C-240.50227955 511.70945956 -243.03686099 509.08986783 -246.375 505.3125 C-248.48351641 501.0143704 -248.64393842 497.7176715 -248 493 C-246.83387406 489.77586091 -245.21982284 486.89690275 -243.5 483.9375 C-242.65370292 482.42720569 -241.81005777 480.91542302 -240.96875 479.40234375 C-240.50122314 478.56493652 -240.03369629 477.7275293 -239.55200195 476.86474609 C-236.62334348 471.45891338 -233.92758 465.93369261 -231.20037842 460.42434692 C-227.42696834 452.80337092 -223.63540527 445.19137689 -219.84448242 437.57910156 C-218.81638259 435.51274378 -217.78970785 433.44567638 -216.7644043 431.37792969 C-215.25950458 428.34379225 -213.74939182 425.31229803 -212.23828125 422.28125 C-211.78608719 421.36653931 -211.33389313 420.45182861 -210.86799622 419.50939941 C-208.48316328 414.73890398 -205.95183541 410.1661682 -203.07200623 405.67666626 C-200.96337565 402.37867259 -199.18832229 398.90342337 -197.375 395.4375 C-196.94751465 394.6237793 -196.5200293 393.81005859 -196.07958984 392.97167969 C-192.28802181 385.68581357 -188.76489795 378.28213333 -185.25854492 370.85595703 C-180.95250885 361.78623122 -176.31837277 352.9035719 -171.63671875 344.0234375 C-169.70229157 340.35360657 -167.82112341 336.66519543 -166 332.9375 C-161.70686747 324.23485484 -156.91431195 315.78127039 -152.23339844 307.28320312 C-151.11216169 305.2076279 -150.04964964 303.11234961 -149 301 C-150.32633202 301.00056554 -150.32633202 301.00056554 -151.67945862 301.0011425 C-173.20465432 301.00826275 -194.7295896 300.98233423 -216.25469971 300.9197216 C-226.66415646 300.89023752 -237.07340915 300.87189735 -247.48291016 300.87988281 C-256.55693487 300.88681542 -265.63064372 300.87274593 -274.7045908 300.83356392 C-279.50830501 300.81355171 -284.31152334 300.80398416 -289.11526489 300.81957626 C-293.63976223 300.83392991 -298.16331316 300.8201344 -302.68768883 300.78504753 C-304.34524539 300.77709998 -306.00288769 300.77930527 -307.66040993 300.79260826 C-322.7764876 300.90363589 -322.7764876 300.90363589 -328.58999634 295.62101936 C-331.91225955 291.80155907 -333.96643576 288.84603303 -334.0625 283.5625 C-331.57434878 275.21987533 -326.99770123 270.89289234 -320.22265625 265.61328125 C-316.46970401 262.64204778 -313.0314709 259.35621238 -309.5625 256.0625 C-302.35993501 249.25724893 -294.86567576 242.94079524 -287.1640625 236.703125 C-281.79426561 232.34110512 -276.5947871 227.86206291 -271.484375 223.19921875 C-268.95029186 220.95599736 -266.34483133 218.84520355 -263.6875 216.75 C-260.21595536 214.01157659 -257.08970711 211.16893037 -254 208 C-249.34846016 203.70041716 -244.55002662 199.60723581 -239.625 195.625 C-234.83309081 191.74075049 -230.28729092 187.64512005 -225.75 183.46875 C-222.18815771 180.27118704 -218.47434167 177.28611657 -214.75 174.28125 C-211.91900422 171.93281032 -209.20616402 169.49090098 -206.5 167 C-202.05272888 162.90648909 -197.45282537 159.07557501 -192.75 155.28125 C-189.91900422 152.93281032 -187.20616402 150.49090098 -184.5 148 C-178.40159186 142.39086242 -172.03843926 137.13262111 -165.4921875 132.0546875 C-162.81713995 129.84924077 -160.44746051 127.45476637 -158 125 C-155.74163539 122.96110029 -153.43461297 120.98048934 -151.125 119 C-149.79025694 117.85038539 -148.45562476 116.70064202 -147.12109375 115.55078125 C-146.44030762 114.96506348 -145.75952148 114.3793457 -145.05810547 113.77587891 C-143.04444591 112.03835107 -141.03845152 110.29243033 -139.03515625 108.54296875 C-132.84543761 103.14168473 -126.62193228 97.83401111 -120.17578125 92.73828125 C-114.89265519 88.51747138 -109.9413118 83.95379096 -105.01025391 79.33203125 C-99.39385122 74.07220168 -93.71753846 68.99339228 -87.7109375 64.17578125 C-84.77583578 61.82008722 -81.88632664 59.41516535 -79 57 C-74.19759054 52.98446127 -69.35152628 49.02769759 -64.47265625 45.10546875 C-61.83524536 42.85971129 -59.43398044 40.46393712 -57 38 C-50.701833 32.04034834 -44.31665516 26.30976866 -37.4921875 20.95703125 C-34.82039181 18.85895971 -32.18921637 16.71670507 -29.5625 14.5625 C-28.20511719 13.45068359 -28.20511719 13.45068359 -26.8203125 12.31640625 C-24.85457538 10.70188809 -22.89121362 9.08447537 -20.9296875 7.46484375 C-19.94226563 6.65144531 -18.95484375 5.83804687 -17.9375 5 C-17.03902344 4.2575 -16.14054687 3.515 -15.21484375 2.75 C-10.5439671 -0.9405692 -5.76788491 -0.57923597 0 0 Z " fill="#FEAB32" transform="translate(375,0)"/>
</svg>
